Coordinates
version=1
nRows=10
nColumns=40
inDegrees=yes

Units are S.I. units (second, meters, Newtons, ...)
Angles are in degrees.

endheader
time	pelvis_tilt	pelvis_list	pelvis_rotation	pelvis_tx	pelvis_ty	pelvis_tz	hip_flexion_r	hip_adduction_r	hip_rotation_r	knee_angle_r	knee_angle_r_beta	ankle_angle_r	subtalar_angle_r	mtp_angle_r	hip_flexion_l	hip_adduction_l	hip_rotation_l	knee_angle_l	knee_angle_l_beta	ankle_angle_l	subtalar_angle_l	mtp_angle_l	lumbar_extension	lumbar_bending	lumbar_rotation	arm_flex_r	arm_add_r	arm_rot_r	elbow_flex_r	pro_sup_r	wrist_flex_r	wrist_dev_r	arm_flex_l	arm_add_l	arm_rot_l	elbow_flex_l	pro_sup_l	wrist_flex_l	wrist_dev_l
      2.19000000	     -3.02187244	     -2.81025546	     10.06353779	      0.28689289	      0.88155518	     -1.44688535	     23.73141220	      0.19984817	    -18.12359035	    -25.03117081	     -0.43687635	      2.38434777	     -7.69181944	      3.77117189	      3.58848382	      5.81432700	      1.47882037	    -45.08947354	     -0.78695977	     -1.11937214	     10.78407842	     -4.14189494	     -0.17055481	      1.99342333	     -9.72148876	     -5.74952152	     -6.56585163	    -15.27445870	     23.91537117	     89.95437384	      0.00000000	      0.00000000	      4.02103842	     11.80024787	     13.08312779	     46.00200120	     89.95437384	      0.00000000	      0.00000000
      2.20000000	     -2.99836255	     -2.90159188	      9.91514029	      0.29391521	      0.88204629	     -1.44522999	     23.16054591	      0.52257666	    -18.26931475	    -24.90397104	     -0.43465629	      2.82959374	     -7.31191135	      3.67682651	      4.57628796	      6.11170138	      1.45771171	    -47.09004871	     -0.82187639	     -3.24284489	     11.14298614	     -3.75130819	     -0.20401612	      2.10201365	     -9.52184309	     -5.63023500	     -6.62394416	    -14.91417263	     24.10594478	     89.95437384	      0.00000000	      0.00000000	      3.80209444	     11.73954298	     13.00756726	     45.53002418	     89.95437384	      0.00000000	      0.00000000
      2.21000000	     -2.87149961	     -2.69477364	      9.62834762	      0.30067453	      0.88262788	     -1.44366183	     22.49845677	      0.54995733	    -18.29341811	    -24.88105926	     -0.43425641	      3.13983985	     -6.97910358	      3.55883883	      5.34019224	      6.00325216	      1.42975426	    -48.99748908	     -0.85516751	     -4.63128877	     11.08147319	     -3.51180668	     -0.47113058	      1.91095392	     -9.10277739	     -5.48256237	     -6.66897309	    -14.62661110	     24.35558360	     89.95437384	      0.00000000	      0.00000000	      3.65366400	     11.66248126	     12.96865819	     45.13545380	     89.95437384	      0.00000000	      0.00000000
      2.22000000	     -2.87841341	     -3.05334056	      9.62349904	      0.30744741	      0.88282037	     -1.44211875	     21.99287636	      1.11066202	    -18.51964601	    -24.71474901	     -0.43135374	      3.75593625	     -6.44717153	      3.39791352	      6.56115126	      6.59010842	      1.23010694	    -51.06374698	     -0.89123051	     -6.16272664	     11.48563953	     -3.16829884	     -0.41612574	      2.31082607	     -9.04331930	     -5.35110683	     -6.79834619	    -14.26434614	     24.61501173	     89.95437384	      0.00000000	      0.00000000	      3.48038045	     11.59414017	     12.82603390	     44.47052955	     89.95437384	      0.00000000	      0.00000000
      2.23000000	     -2.75113412	     -2.79562514	      9.27855498	      0.31394682	      0.88336202	     -1.44066563	     21.39084834	      1.06072432	    -18.52263502	    -24.75894845	     -0.43212517	      3.93209171	     -6.14353910	      3.28951505	      7.33541967	      6.40013702	      1.28982885	    -52.84993747	     -0.92240542	     -6.29524294	     11.32248074	     -3.08281676	     -0.75189740	      2.08064209	     -8.55030709	     -5.16678977	     -6.84902083	    -14.05059663	     24.93636278	     89.95437384	      0.00000000	      0.00000000	      3.28144550	     11.47910488	     12.85445060	     44.19789460	     89.95437384	      0.00000000	      0.00000000
      2.24000000	     -2.98916997	     -3.38615414	      9.27430701	      0.31993452	      0.88282880	     -1.43921215	     21.26577690	      1.83462400	    -18.66833738	    -24.62702215	     -0.42982262	      4.44075749	     -5.48823910	      3.12154430	      9.13646657	      7.21452959	      1.29013874	    -55.23504255	     -0.96403335	     -5.78742659	     12.61624546	     -2.63400786	     -0.46029549	      2.71389887	     -8.48555051	     -5.04752374	     -7.11720824	    -13.39528843	     25.32927795	     89.95437384	      0.00000000	      0.00000000	      3.10740721	     11.28244171	     12.90049852	     43.61184050	     89.95437384	      0.00000000	      0.00000000
      2.25000000	     -2.79742150	     -3.52738235	      9.09025748	      0.32626621	      0.88321419	     -1.43776970	     20.66366165	      2.23391646	    -18.62677718	    -24.68511937	     -0.43083661	      5.00618320	     -5.28547332	      2.98316091	     10.09132721	      7.59372561	      1.59892870	    -57.00159996	     -0.99486560	     -5.23755590	     13.82637979	     -2.37394579	     -0.74291685	      2.92518821	     -8.21701592	     -4.72735868	     -7.23622374	    -13.22050599	     25.46762175	     89.95437384	      0.00000000	      0.00000000	      2.98200679	     11.13970488	     12.97317129	     43.01568135	     89.95437384	      0.00000000	      0.00000000
      2.26000000	     -2.71411588	     -3.69509614	      8.96963315	      0.33264969	      0.88340262	     -1.43643350	     20.09695373	      2.66948775	    -18.51300659	    -24.54964221	     -0.42847209	      5.43193207	     -5.04214203	      2.86642711	     11.19920681	      7.94149774	      1.82066088	    -58.66740197	     -1.02393933	     -4.52755294	     15.36409872	     -2.04303495	     -0.88584198	      3.12682941	     -7.97798149	     -4.50882682	     -7.38674264	    -12.96938954	     25.72547609	     89.95437384	      0.00000000	      0.00000000	      2.77708743	     10.97656152	     13.06697239	     42.54337794	     89.95437384	      0.00000000	      0.00000000
      2.27000000	     -2.67707757	     -3.78657752	      8.78036057	      0.33873787	      0.88356401	     -1.43500992	     19.63290251	      3.01207716	    -18.35922946	    -24.50097365	     -0.42762266	      5.86913571	     -4.89659274	      2.75616523	     12.35901191	      8.20017934	      2.06837216	    -60.20331263	     -1.05074603	     -3.71463768	     16.64591767	     -1.63361898	     -1.01943926	      3.23424292	     -7.69284868	     -4.23775859	     -7.49942556	    -12.73772513	     25.95190251	     89.95437384	      0.00000000	      0.00000000	      2.57744295	     10.82324502	     13.22996421	     42.09035971	     89.95437384	      0.00000000	      0.00000000
      2.28000000	     -2.53197655	     -3.59912178	      8.55368443	      0.34481236	      0.88404576	     -1.43381052	     19.03939718	      3.01911965	    -18.32046004	    -24.53378340	     -0.42819530	      6.02879463	     -4.82249692	      2.68697116	     13.27044052	      8.19283529	      2.45332145	    -61.38887284	     -1.07143796	     -3.25307004	     17.00372148	     -1.47385762	     -1.32718002	      3.05617898	     -7.38948246	     -3.89476609	     -7.58234450	    -12.60935428	     26.11835689	     89.95437384	      0.00000000	      0.00000000	      2.34848257	     10.73472952	     13.30598323	     41.67294500	     89.95437384	      0.00000000	      0.00000000
